<svg xmlns="http://www.w3.org/2000/svg" viewBox="0 0 64 64"><rect x="2" y="2" width="60" height="60" rx="14" fill="#0d1117" stroke="#30363d" stroke-width="2"/><g transform="translate(14.000,42.905) scale(0.01500,-0.01500)" fill="#7ee787"><path d="M514 483Q481 483 458.5 507.0Q436 531 436 569L367 685L436 742H608Q689 742 740.0 766.0Q791 790 815.0 841.5Q839 893 839 976Q839 1051 813.0 1099.0Q787 1147 735.0 1169.5Q683 1192 605 1192H431L345 1454Q374 1454 413.5 1454.0Q453 1454 496.0 1454.0Q539 1454 577.0 1454.0Q615 1454 641 1454Q895 1454 1030.0 1343.0Q1165 1232 1165 992Q1165 891 1137.0 799.5Q1109 708 1047.5 636.5Q986 565 886.0 524.0Q786 483 643 483ZM120 0V1454H436V0Z"/><g transform="translate(1200,0)"><path d="M883 0 594 589H449L383 604L411 804V836H595Q672 836 720.5 860.5Q769 885 792.5 930.5Q816 976 816 1040Q816 1113 786.0 1149.0Q756 1185 711.0 1197.5Q666 1210 619 1210L466 1211L394 1334L382 1454Q419 1454 459.0 1454.0Q499 1454 548.0 1454.0Q597 1454 661 1454Q866 1454 994.5 1348.0Q1123 1242 1123 1027Q1123 955 1100.0 885.5Q1077 816 1029.0 758.5Q981 701 905.5 665.5Q830 630 726 626L768 642Q810 642 843.5 635.0Q877 628 903.0 609.0Q929 590 946 555L1216 0ZM151 0V1454H467V0Z"/></g></g></svg>